<svg width="30" height="30" viewBox="0 0 30 30" fill="none" xmlns="http://www.w3.org/2000/svg">
<circle cx="15" cy="15" r="15" fill="#E3E3FB"/>
<path d="M10.816 19.832C12.1707 18.744 13.232 17.8533 14 17.16C14.768 16.456 15.4133 15.7253 15.936 14.968C16.4693 14.2 16.736 13.448 16.736 12.712C16.736 12.0187 16.5653 11.4747 16.224 11.08C15.8933 10.6747 15.3547 10.472 14.608 10.472C13.8827 10.472 13.3173 10.7013 12.912 11.16C12.5173 11.608 12.304 12.2107 12.272 12.968H10.864C10.9067 11.7733 11.2693 10.8507 11.952 10.2C12.6347 9.54933 13.5147 9.224 14.592 9.224C15.6907 9.224 16.56 9.528 17.2 10.136C17.8507 10.744 18.176 11.5813 18.176 12.648C18.176 13.5333 17.9093 14.3973 17.376 15.24C16.8533 16.072 16.256 16.808 15.584 17.448C14.912 18.0773 14.0533 18.8133 13.008 19.656H18.512V20.872H10.816V19.832Z" fill="#6F70DA"/>
</svg>
