<svg width="30" height="30" viewBox="0 0 30 30" fill="none" xmlns="http://www.w3.org/2000/svg">
<circle cx="15" cy="15" r="15" fill="#E3E3FB"/>
<path d="M17.44 12.184C17.2053 11 16.4747 10.408 15.248 10.408C14.2987 10.408 13.5893 10.776 13.12 11.512C12.6507 12.2373 12.4213 13.4373 12.432 15.112C12.6773 14.5573 13.0827 14.1253 13.648 13.816C14.224 13.496 14.864 13.336 15.568 13.336C16.6667 13.336 17.5413 13.6773 18.192 14.36C18.8533 15.0427 19.184 15.9867 19.184 17.192C19.184 17.9173 19.04 18.568 18.752 19.144C18.4747 19.72 18.048 20.1787 17.472 20.52C16.9067 20.8613 16.2187 21.032 15.408 21.032C14.3093 21.032 13.4507 20.7867 12.832 20.296C12.2133 19.8053 11.7813 19.128 11.536 18.264C11.2907 17.4 11.168 16.3333 11.168 15.064C11.168 11.1493 12.5333 9.192 15.264 9.192C16.3093 9.192 17.1307 9.47467 17.728 10.04C18.3253 10.6053 18.6773 11.32 18.784 12.184H17.44ZM15.264 14.568C14.8053 14.568 14.3733 14.664 13.968 14.856C13.5627 15.0373 13.232 15.32 12.976 15.704C12.7307 16.0773 12.608 16.536 12.608 17.08C12.608 17.8907 12.8427 18.552 13.312 19.064C13.7813 19.5653 14.4533 19.816 15.328 19.816C16.0747 19.816 16.6667 19.5867 17.104 19.128C17.552 18.6587 17.776 18.0293 17.776 17.24C17.776 16.408 17.5627 15.7573 17.136 15.288C16.7093 14.808 16.0853 14.568 15.264 14.568Z" fill="#6F70DA"/>
</svg>
