<svg width="50" height="50" viewBox="0 0 50 50" fill="none" xmlns="http://www.w3.org/2000/svg">
<path d="M25 0C11.215 0 0 11.215 0 25C0 38.785 11.215 50 25 50C38.785 50 50 38.785 50 25C50 11.215 38.785 0 25 0ZM25 10.25C25.6428 10.25 26.2711 10.4406 26.8056 10.7977C27.3401 11.1548 27.7566 11.6624 28.0026 12.2563C28.2486 12.8501 28.313 13.5036 28.1876 14.134C28.0622 14.7645 27.7526 15.3436 27.2981 15.7981C26.8436 16.2526 26.2645 16.5621 25.634 16.6876C25.0036 16.813 24.3501 16.7486 23.7563 16.5026C23.1624 16.2566 22.6548 15.8401 22.2977 15.3056C21.9406 14.7711 21.75 14.1428 21.75 13.5C21.75 12.638 22.0924 11.8114 22.7019 11.2019C23.3114 10.5924 24.138 10.25 25 10.25ZM31 38.5H20C19.4696 38.5 18.9609 38.2893 18.5858 37.9142C18.2107 37.5391 18 37.0304 18 36.5C18 35.9696 18.2107 35.4609 18.5858 35.0858C18.9609 34.7107 19.4696 34.5 20 34.5H23.5V23.5H21.5C20.9696 23.5 20.4609 23.2893 20.0858 22.9142C19.7107 22.5391 19.5 22.0304 19.5 21.5C19.5 20.9696 19.7107 20.4609 20.0858 20.0858C20.4609 19.7107 20.9696 19.5 21.5 19.5H25.5C26.0304 19.5 26.5391 19.7107 26.9142 20.0858C27.2893 20.4609 27.5 20.9696 27.5 21.5V34.5H31C31.5304 34.5 32.0391 34.7107 32.4142 35.0858C32.7893 35.4609 33 35.9696 33 36.5C33 37.0304 32.7893 37.5391 32.4142 37.9142C32.0391 38.2893 31.5304 38.5 31 38.5Z" fill="#404040"/>
</svg>
