<svg width="50" height="40" viewBox="0 0 50 40" fill="none" xmlns="http://www.w3.org/2000/svg">
<g clip-path="url(#clip0_55_81)">
<path d="M48.1251 0H33.1251C32.0951 0 30.6526 0.5975 29.9251 1.325L11.3276 19.9225C10.9769 20.2748 10.78 20.7517 10.78 21.2488C10.78 21.7458 10.9769 22.2227 11.3276 22.575L27.4251 38.6725C27.7774 39.0232 28.2542 39.22 28.7513 39.22C29.2484 39.22 29.7253 39.0232 30.0776 38.6725L48.6751 20.075C49.4051 19.345 50.0001 17.905 50.0001 16.875V1.875C49.9987 1.37812 49.8008 0.901978 49.4494 0.550633C49.0981 0.199288 48.6219 0.00131973 48.1251 0V0ZM38.7501 15C38.2574 14.9998 37.7697 14.9026 37.3146 14.714C36.8596 14.5253 36.4461 14.2489 36.0979 13.9004C35.7497 13.5519 35.4735 13.1383 35.2851 12.6831C35.0968 12.228 34.9999 11.7401 35.0001 11.2475C35.0002 10.7549 35.0974 10.2671 35.2861 9.81205C35.4748 9.35699 35.7512 8.94355 36.0997 8.59533C36.4481 8.24711 36.8617 7.97093 37.3169 7.78257C37.7721 7.5942 38.2599 7.49734 38.7526 7.4975C39.7475 7.49783 40.7015 7.89337 41.4047 8.5971C42.108 9.30083 42.5029 10.2551 42.5026 11.25C42.5022 12.2449 42.1067 13.1989 41.403 13.9022C40.6992 14.6054 39.745 15.0003 38.7501 15Z" fill="#404040"/>
<path d="M5.00006 21.25L26.2501 0H23.1251C22.0951 0 20.6526 0.5975 19.9251 1.325L1.32757 19.9225C0.976896 20.2748 0.780029 20.7517 0.780029 21.2488C0.780029 21.7458 0.976896 22.2227 1.32757 22.575L17.4251 38.6725C17.7774 39.0232 18.2542 39.22 18.7513 39.22C19.2484 39.22 19.7253 39.0232 20.0776 38.6725L21.2526 37.4975L5.00256 21.2475L5.00006 21.25Z" fill="#404040"/>
</g>
<defs>
<clipPath id="clip0_55_81">
<rect width="50" height="40" fill="white"/>
</clipPath>
</defs>
</svg>
