<svg width="50" height="50" viewBox="0 0 50 50" fill="none" xmlns="http://www.w3.org/2000/svg">
<g clip-path="url(#clip0_55_96)">
<path d="M37.5 0H12.5C10.8424 0 9.25268 0.65848 8.08058 1.83058C6.90848 3.00269 6.25 4.5924 6.25 6.25V43.75C6.25 45.4076 6.90848 46.9973 8.08058 48.1694C9.25268 49.3415 10.8424 50 12.5 50H37.5C39.1576 50 40.7473 49.3415 41.9194 48.1694C43.0915 46.9973 43.75 45.4076 43.75 43.75V6.25C43.75 4.5924 43.0915 3.00269 41.9194 1.83058C40.7473 0.65848 39.1576 0 37.5 0V0ZM26.5625 14.0625V16.0437L28.2781 15.0531C28.4559 14.9489 28.6525 14.8809 28.8567 14.853C29.0608 14.8251 29.2685 14.8378 29.4677 14.8905C29.6669 14.9431 29.8538 15.0347 30.0175 15.1599C30.1812 15.285 30.3185 15.4413 30.4215 15.6198C30.5245 15.7983 30.5913 15.9953 30.6178 16.1997C30.6444 16.404 30.6303 16.6116 30.5763 16.8105C30.5223 17.0093 30.4295 17.1955 30.3032 17.3584C30.177 17.5213 30.0198 17.6575 29.8406 17.7594L28.125 18.75L29.8406 19.7406C30.0198 19.8425 30.177 19.9787 30.3032 20.1416C30.4295 20.3045 30.5223 20.4907 30.5763 20.6895C30.6303 20.8884 30.6444 21.096 30.6178 21.3003C30.5913 21.5047 30.5245 21.7017 30.4215 21.8802C30.3185 22.0587 30.1812 22.215 30.0175 22.3401C29.8538 22.4653 29.6669 22.5569 29.4677 22.6095C29.2685 22.6622 29.0608 22.6749 28.8567 22.647C28.6525 22.6191 28.4559 22.5511 28.2781 22.4469L26.5625 21.4563V23.4375C26.5625 23.8519 26.3979 24.2493 26.1049 24.5424C25.8118 24.8354 25.4144 25 25 25C24.5856 25 24.1882 24.8354 23.8951 24.5424C23.6021 24.2493 23.4375 23.8519 23.4375 23.4375V21.4563L21.7219 22.4469C21.5441 22.5511 21.3475 22.6191 21.1433 22.647C20.9392 22.6749 20.7315 22.6622 20.5323 22.6095C20.3331 22.5569 20.1462 22.4653 19.9825 22.3401C19.8188 22.215 19.6815 22.0587 19.5785 21.8802C19.4755 21.7017 19.4087 21.5047 19.3822 21.3003C19.3556 21.096 19.3697 20.8884 19.4237 20.6895C19.4777 20.4907 19.5705 20.3045 19.6968 20.1416C19.823 19.9787 19.9802 19.8425 20.1594 19.7406L21.875 18.75L20.1594 17.7594C19.8034 17.5507 19.5445 17.2097 19.439 16.8108C19.3335 16.4119 19.3901 15.9875 19.5964 15.6302C19.8028 15.2728 20.142 15.0116 20.5402 14.9035C20.9384 14.7954 21.3632 14.8492 21.7219 15.0531L23.4375 16.0437V14.0625C23.4375 13.6481 23.6021 13.2507 23.8951 12.9576C24.1882 12.6646 24.5856 12.5 25 12.5C25.4144 12.5 25.8118 12.6646 26.1049 12.9576C26.3979 13.2507 26.5625 13.6481 26.5625 14.0625ZM17.1875 28.125H32.8125C33.2269 28.125 33.6243 28.2896 33.9174 28.5826C34.2104 28.8757 34.375 29.2731 34.375 29.6875C34.375 30.1019 34.2104 30.4993 33.9174 30.7924C33.6243 31.0854 33.2269 31.25 32.8125 31.25H17.1875C16.7731 31.25 16.3757 31.0854 16.0826 30.7924C15.7896 30.4993 15.625 30.1019 15.625 29.6875C15.625 29.2731 15.7896 28.8757 16.0826 28.5826C16.3757 28.2896 16.7731 28.125 17.1875 28.125ZM17.1875 34.375H32.8125C33.2269 34.375 33.6243 34.5396 33.9174 34.8326C34.2104 35.1257 34.375 35.5231 34.375 35.9375C34.375 36.3519 34.2104 36.7493 33.9174 37.0424C33.6243 37.3354 33.2269 37.5 32.8125 37.5H17.1875C16.7731 37.5 16.3757 37.3354 16.0826 37.0424C15.7896 36.7493 15.625 36.3519 15.625 35.9375C15.625 35.5231 15.7896 35.1257 16.0826 34.8326C16.3757 34.5396 16.7731 34.375 17.1875 34.375Z" fill="#404040"/>
</g>
<defs>
<clipPath id="clip0_55_96">
<rect width="50" height="50" fill="white"/>
</clipPath>
</defs>
</svg>
