<svg width="30" height="30" viewBox="0 0 30 30" fill="none" xmlns="http://www.w3.org/2000/svg">
<circle cx="15" cy="15" r="15" fill="#E3E3FB"/>
<path d="M18.368 10.696H12.752V14.344C12.9973 14.0027 13.36 13.7253 13.84 13.512C14.32 13.288 14.8373 13.176 15.392 13.176C16.2773 13.176 16.9973 13.3627 17.552 13.736C18.1067 14.0987 18.5013 14.5733 18.736 15.16C18.9813 15.736 19.104 16.3493 19.104 17C19.104 17.768 18.96 18.456 18.672 19.064C18.384 19.672 17.9413 20.152 17.344 20.504C16.7573 20.856 16.0267 21.032 15.152 21.032C14.032 21.032 13.1253 20.744 12.432 20.168C11.7387 19.592 11.3173 18.824 11.168 17.864H12.592C12.7307 18.472 13.024 18.9467 13.472 19.288C13.92 19.6293 14.4853 19.8 15.168 19.8C16.0107 19.8 16.6453 19.5493 17.072 19.048C17.4987 18.536 17.712 17.864 17.712 17.032C17.712 16.2 17.4987 15.56 17.072 15.112C16.6453 14.6533 16.016 14.424 15.184 14.424C14.6187 14.424 14.1227 14.5627 13.696 14.84C13.28 15.1067 12.976 15.4747 12.784 15.944H11.408V9.416H18.368V10.696Z" fill="#6F70DA"/>
</svg>
