<svg width="60" height="60" viewBox="0 0 60 60" fill="none" xmlns="http://www.w3.org/2000/svg">
<path d="M22.5 37.2925V38.75C22.5 41.7337 23.6853 44.5952 25.795 46.7049C27.9048 48.8147 30.7663 50 33.75 50C36.7337 50 39.5952 48.8147 41.7049 46.7049C43.8147 44.5952 45 41.7337 45 38.75V34.575C43.3313 33.9852 41.9248 32.8245 41.0291 31.298C40.1334 29.7715 39.8063 27.9774 40.1055 26.233C40.4047 24.4886 41.3109 22.9061 42.6641 21.7653C44.0172 20.6245 45.7301 19.9988 47.5 19.9988C49.2699 19.9988 50.9828 20.6245 52.3359 21.7653C53.6891 22.9061 54.5953 24.4886 54.8945 26.233C55.1937 27.9774 54.8666 29.7715 53.9709 31.298C53.0752 32.8245 51.6687 33.9852 50 34.575V38.75C50 43.0598 48.2879 47.193 45.2405 50.2405C42.193 53.2879 38.0598 55 33.75 55C29.4402 55 25.307 53.2879 22.2595 50.2405C19.212 47.193 17.5 43.0598 17.5 38.75V37.2925C14.0048 36.7007 10.832 34.8905 8.544 32.1829C6.25596 29.4752 5.00045 26.0449 5 22.5L5 10C5 8.67392 5.52678 7.40215 6.46447 6.46447C7.40215 5.52678 8.67392 5 10 5H12.5C13.163 5 13.7989 5.26339 14.2678 5.73223C14.7366 6.20107 15 6.83696 15 7.5C15 8.16304 14.7366 8.79893 14.2678 9.26777C13.7989 9.73661 13.163 10 12.5 10H10V22.5C10 25.1522 11.0536 27.6957 12.9289 29.5711C14.8043 31.4464 17.3478 32.5 20 32.5C22.6522 32.5 25.1957 31.4464 27.0711 29.5711C28.9464 27.6957 30 25.1522 30 22.5V10H27.5C26.837 10 26.2011 9.73661 25.7322 9.26777C25.2634 8.79893 25 8.16304 25 7.5C25 6.83696 25.2634 6.20107 25.7322 5.73223C26.2011 5.26339 26.837 5 27.5 5H30C31.3261 5 32.5979 5.52678 33.5355 6.46447C34.4732 7.40215 35 8.67392 35 10V22.5C34.9995 26.0449 33.744 29.4752 31.456 32.1829C29.168 34.8905 25.9952 36.7007 22.5 37.2925ZM47.5 30C48.163 30 48.7989 29.7366 49.2678 29.2678C49.7366 28.7989 50 28.163 50 27.5C50 26.837 49.7366 26.2011 49.2678 25.7322C48.7989 25.2634 48.163 25 47.5 25C46.837 25 46.2011 25.2634 45.7322 25.7322C45.2634 26.2011 45 26.837 45 27.5C45 28.163 45.2634 28.7989 45.7322 29.2678C46.2011 29.7366 46.837 30 47.5 30Z" fill="#6F70DA"/>
</svg>
