<svg width="170" height="517" viewBox="0 0 170 517" fill="none" xmlns="http://www.w3.org/2000/svg">
<path d="M138.625 480.928C138.451 479.992 138.485 479.029 138.725 478.108C138.965 477.187 139.405 476.33 140.013 475.597C140.622 474.865 141.384 474.276 142.246 473.872C143.108 473.467 144.048 473.258 145 473.258C145.952 473.258 146.892 473.467 147.754 473.872C148.616 474.276 149.378 474.865 149.987 475.597C150.595 476.33 151.035 477.187 151.275 478.108C151.515 479.029 151.549 479.992 151.375 480.928L148.7 495.178C148.537 496.04 148.078 496.818 147.403 497.378C146.727 497.938 145.877 498.244 145 498.244C144.123 498.244 143.273 497.938 142.597 497.378C141.922 496.818 141.463 496.04 141.3 495.178L138.628 480.928H138.625ZM149.688 506.063C149.688 507.306 149.194 508.498 148.315 509.377C147.435 510.256 146.243 510.75 145 510.75C143.757 510.75 142.565 510.256 141.685 509.377C140.806 508.498 140.313 507.306 140.313 506.063C140.313 504.819 140.806 503.627 141.685 502.748C142.565 501.869 143.757 501.375 145 501.375C146.243 501.375 147.435 501.869 148.315 502.748C149.194 503.627 149.688 504.819 149.688 506.063V506.063Z" fill="#404040"/>
</svg>
