<svg width="30" height="30" viewBox="0 0 30 30" fill="none" xmlns="http://www.w3.org/2000/svg">
<circle cx="15" cy="15" r="15" fill="#E3E3FB"/>
<path d="M10.96 12.344C11.0347 11.3627 11.4133 10.5947 12.096 10.04C12.7787 9.48533 13.664 9.208 14.752 9.208C15.4773 9.208 16.1013 9.34133 16.624 9.608C17.1573 9.864 17.5573 10.216 17.824 10.664C18.1013 11.112 18.24 11.6187 18.24 12.184C18.24 12.8453 18.048 13.416 17.664 13.896C17.2907 14.376 16.8 14.6853 16.192 14.824V14.904C16.8853 15.0747 17.4347 15.4107 17.84 15.912C18.2453 16.4133 18.448 17.0693 18.448 17.88C18.448 18.488 18.3093 19.0373 18.032 19.528C17.7547 20.008 17.3387 20.3867 16.784 20.664C16.2293 20.9413 15.5627 21.08 14.784 21.08C13.6533 21.08 12.7253 20.7867 12 20.2C11.2747 19.6027 10.8693 18.76 10.784 17.672H12.192C12.2667 18.312 12.528 18.8347 12.976 19.24C13.424 19.6453 14.0213 19.848 14.768 19.848C15.5147 19.848 16.08 19.656 16.464 19.272C16.8587 18.8773 17.056 18.3707 17.056 17.752C17.056 16.952 16.7893 16.376 16.256 16.024C15.7227 15.672 14.9173 15.496 13.84 15.496H13.472V14.28H13.856C14.8373 14.2693 15.5787 14.1093 16.08 13.8C16.5813 13.48 16.832 12.9893 16.832 12.328C16.832 11.7627 16.6453 11.3093 16.272 10.968C15.9093 10.6267 15.3867 10.456 14.704 10.456C14.0427 10.456 13.5093 10.6267 13.104 10.968C12.6987 11.3093 12.4587 11.768 12.384 12.344H10.96Z" fill="#6F70DA"/>
</svg>
